#N canvas 2148 859 892 1059 12;
#X obj 267 16 adc~ 1 2;
#X obj 954 -1;
#X obj 603 28 adc~ 3 4 5 6;
#X obj 646 291 dac~ 27 28 29 30;
#X obj 617 237 r~ osc_1;
#X obj 687 237 r~ osc_2;
#X obj 755 237 r~ osc_3;
#X obj 826 237 r~ osc_4;
#X obj 603 55 *~ 1.2;
#X obj 630 81 *~ 1.2;
#X obj 659 108 *~ 1.2;
#X obj 685 138 *~ 1.2;
#X obj 603 138 s~ cv1;
#X obj 629 163 s~ cv2;
#X obj 660 186 s~ cv3;
#X obj 685 -6 s~ cv4;
#X obj 165 124 vsl 15 128 0.1 1000 1 0 empty empty empty 0 -9 0 10
-262144 -1 -1 0 1;
#X floatatom 165 266 5 0 0 0 - - -, f 5;
#X floatatom 251 323 5 0 0 0 - - -, f 5;
#X obj 168 294 phasor~;
#X obj 167 586 dac~ 1 2 3 4;
#X obj 253 167 vsl 15 128 10 1000 1 0 empty empty empty 0 -9 0 10 -262144
-1 -1 0 1;
#X obj 168 415 moddemod~;
#X obj 228 477 eurocomb~;
#X floatatom 319 322 5 0 0 0 - - -, f 5;
#X obj 316 182 vsl 15 128 0.01 1 1 0 empty empty empty 0 -9 0 10 -262144
-1 -1 0 1;
#X obj 318 362 *~ 1;
#X obj 75 368 *~;
#X obj 75 393 +~;
#X obj 88 162 vsl 15 128 0.01 1 1 0 empty empty empty 0 -9 0 10 -262144
-1 -1 0 1;
#X floatatom 93 305 5 0 0 0 - - -, f 5;
#X text 186 136 f_sig;
#X text 264 182 f_mod;
#X floatatom 401 321 5 0 0 0 - - -, f 5;
#X obj 398 181 vsl 15 128 0.01 1 1 0 empty empty empty 0 -9 0 10 -262144
-1 -1 0 1;
#X obj 400 361 *~ 1;
#X text 318 152 comb size;
#X text 414 182 fb_intern;
#X text 71 111 fb_ext;
#X obj 229 544 s~ fbMod;
#X obj 39 339 r~ fbMod;
#X obj 250 363 *~ -1;
#X obj 226 63 lop~ 200;
#X connect 0 0 42 0;
#X connect 2 0 8 0;
#X connect 2 1 9 0;
#X connect 2 2 10 0;
#X connect 2 3 11 0;
#X connect 4 0 3 0;
#X connect 5 0 3 1;
#X connect 6 0 3 2;
#X connect 7 0 3 3;
#X connect 8 0 12 0;
#X connect 9 0 13 0;
#X connect 10 0 14 0;
#X connect 11 0 15 0;
#X connect 16 0 17 0;
#X connect 17 0 19 0;
#X connect 18 0 41 0;
#X connect 19 0 28 1;
#X connect 21 0 18 0;
#X connect 22 0 20 2;
#X connect 22 1 23 0;
#X connect 23 1 39 0;
#X connect 23 1 20 0;
#X connect 23 1 20 1;
#X connect 24 0 26 0;
#X connect 25 0 24 0;
#X connect 26 0 23 1;
#X connect 27 0 28 0;
#X connect 28 0 22 0;
#X connect 29 0 30 0;
#X connect 30 0 27 1;
#X connect 33 0 35 0;
#X connect 34 0 33 0;
#X connect 35 0 23 2;
#X connect 40 0 27 0;
#X connect 41 0 22 2;
#X connect 42 0 22 1;
